#!OML:ASF F:\VICON\USERDATA\INSTALL\rory3\rory3.ASF
:FULLY-SPECIFIED
:DEGREES
1341
root 0.737135 15.8904 -3.48273 340.712 14.8512 2.79042
lowerback 17.5443 -1.69379 1.0305
upperback 10.1155 -1.97793 0.0923972
thorax 0.955316 -0.911829 -0.162322
lowerneck -15.6636 -8.10195 -15.6206
upperneck 19.7584 -9.40009 9.25734
head 10.0874 -4.56628 4.51201
rclavicle -5.66536e-015 -2.94201e-014
rhumerus -45.0252 46.5499 -85.8152
rradius 98.2311
rwrist 37.8795
rhand -52.2195 24.4771
rfingers 7.12502
rthumb -24.7179 -3.94612
lclavicle -5.66536e-015 -2.94201e-014
lhumerus -32.0888 -12.9751 86.7498
lradius 62.3214
lwrist -7.31603
lhand -18.1775 4.94567
lfingers 7.12502
lthumb 8.09898 34.7705
rfemur -71.4202 -37.7086 14.0513
rtibia 140.706
rfoot -5.88263 2.82869
rtoes 6.60213
lfemur -25.9218 29.9889 -11.6504
ltibia 96.0891
lfoot 2.60802 1.3897
ltoes -14.195
1342
root 0.736491 15.9065 -3.47284 340.622 14.6789 2.98362
lowerback 17.5929 -1.55861 0.896626
upperback 10.1968 -1.82052 -0.0248077
thorax 1.01945 -0.83416 -0.235836
lowerneck -15.7044 -8.26139 -15.5982
upperneck 19.6517 -9.64229 9.35967
head 10.0949 -4.66313 4.50351
rclavicle -2.27608e-014 2.46493e-014
rhumerus -46.0159 47.7249 -86.9918
rradius 97.5712
rwrist 38.5699
rhand -53.1307 24.7466
rfingers 7.12502
rthumb -25.591 -3.55408
lclavicle -2.27608e-014 2.46493e-014
lhumerus -32.3516 -13.2877 86.6423
lradius 62.7351
lwrist -7.30903
lhand -18.7594 4.42011
lfingers 7.12502
lthumb 7.53734 34.2658
rfemur -71.1241 -37.4687 13.7895
rtibia 140.608
rfoot -5.71703 2.87791
rtoes 6.61098
lfemur -25.2577 30.1439 -11.4961
ltibia 95.6255
lfoot 1.47874 0.877336
ltoes -18.0274
1343
root 0.734718 15.9038 -3.46301 340.768 14.4282 3.02807
lowerback 17.4418 -1.4485 0.868163
upperback 10.1566 -1.68461 -0.0724498
thorax 1.05425 -0.766467 -0.294805
lowerneck -15.6673 -8.36527 -15.6565
upperneck 19.5479 -9.80497 9.49112
head 10.0844 -4.72882 4.53349
rclavicle 2.9122e-014 -2.38542e-014
rhumerus -47.0708 48.804 -88.1573
rradius 96.8965
rwrist 39.2242
rhand -53.8535 25.2276
rfingers 7.12502
rthumb -26.2831 -2.9718
lclavicle 2.9122e-014 -2.38542e-014
lhumerus -32.6669 -13.5198 86.5405
lradius 63.1172
lwrist -7.17353
lhand -18.808 4.06908
lfingers 7.12502
lthumb 7.49044 33.9165
rfemur -71.3911 -37.1331 14.0127
rtibia 140.643
rfoot -5.51383 2.79444
rtoes 7.02716
lfemur -25.1116 30.3958 -11.3187
ltibia 95.3002
lfoot 0.803169 0.743113
ltoes -19.6735
1344
root 0.73872 15.895 -3.45904 340.621 14.4947 3.00332
lowerback 17.6631 -1.46185 0.965868
upperback 10.1666 -1.68413 -0.126057
thorax 0.947344 -0.760044 -0.401429
lowerneck -15.5587 -8.44721 -15.7941
upperneck 19.35 -9.9414 9.70661
head 10.0331 -4.78097 4.61166
rclavicle -1.25234e-014 2.70347e-014
rhumerus -48.0975 49.6507 -89.1894
rradius 96.2093
rwrist 39.7323
rhand -54.1956 27.6162
rfingers 7.12502
rthumb -26.6106 -0.533876
lclavicle -1.25234e-014 2.70347e-014
lhumerus -32.9324 -13.8259 86.4972
lradius 63.4004
lwrist -7.09218
lhand -19.0132 3.69685
lfingers 7.12502
lthumb 7.29239 33.5512
rfemur -71.1527 -37.4195 13.8077
rtibia 140.691
rfoot -5.4771 2.98791
rtoes 7.02145
lfemur -24.7528 30.281 -11.1107
ltibia 95.0001
lfoot 0.586101 0.788064
ltoes -19.7107
1345
root 0.738833 15.8884 -3.45088 340.854 14.6235 3.07145
lowerback 17.4025 -1.45345 0.921372
upperback 10.1439 -1.68404 -0.192484
thorax 1.05564 -0.759854 -0.451613
lowerneck -15.4021 -8.54135 -15.9922
upperneck 19.0724 -10.0971 9.98791
head 9.95547 -4.84073 4.72033
rclavicle 5.46658e-015 -1.66979e-014
rhumerus -49.109 50.4764 -90.2924
rradius 95.4439
rwrist 39.9872
rhand -54.5071 29.6208
rfingers 7.12502
rthumb -26.9086 1.51625
lclavicle 5.46658e-015 -1.66979e-014
lhumerus -33.0986 -14.1477 86.4721
lradius 63.5642
lwrist -7.1221
lhand -19.5192 3.2258
lfingers 7.12502
lthumb 6.80395 33.0965
rfemur -71.496 -37.7565 13.8437
rtibia 140.773
rfoot -5.41456 3.10877
rtoes 6.62089
lfemur -24.8492 30.2064 -11.2364
ltibia 94.7088
lfoot 0.712745 0.636797
ltoes -19.7987
1346
root 0.738345 15.8886 -3.4423 341.057 14.8096 3.15367
lowerback 17.1876 -1.47419 0.832884
upperback 10.098 -1.72752 -0.266527
thorax 1.11613 -0.783596 -0.476739
lowerneck -15.2013 -8.62508 -16.1677
upperneck 18.8283 -10.2436 10.2281
head 9.87765 -4.90088 4.81359
rclavicle -1.78906e-015 -3.57812e-015
rhumerus -50.3104 51.3791 -91.6571
rradius 94.5833
rwrist 40.2477
rhand -55.0975 29.077
rfingers 7.12502
rthumb -27.4734 1.06082
lclavicle -1.78906e-015 -3.57812e-015
lhumerus -33.3228 -14.5219 86.4823
lradius 63.705
lwrist -7.06836
lhand -19.9885 3.0792
lfingers 7.12502
lthumb 6.35094 32.964
rfemur -71.6874 -38.1898 13.762
rtibia 140.805
rfoot -5.37265 3.2591
rtoes 6.87154
lfemur -24.9389 30.0759 -11.4488
ltibia 94.3901
lfoot 1.00275 0.3938
ltoes -20.3292
